<svg xmlns="http://www.w3.org/2000/svg" width="842.73" height="573.705" viewBox="0 0 842.73 573.705">
  <g>
    <path fill="rgb(242,242,242)" fill-rule="evenodd" d="M756.019 559.40511c-18.90064 13.616-43.39446 14.29971-67.07038 12.627-3.306-.23326-6.58868-.507-9.84091-.80228-.01965-.0051-.04544-.00328-.06541-.00836-.15629-.01487-.3129-.02976-.46245-.03863-.67126-.0628-1.34284-.12554-2.0078-.18875l.15708.29974.493.93009c-.17718-.31128-.35423-.6161-.53141-.92739-.05212-.09343-.11053-.18646-.16233-.28-6.13337-10.67317-12.21659-21.73842-13.76829-33.926-1.6039-12.65015 2.9037-26.9743 14.03727-33.19189 1.46013031-.81306805 3.00642318-1.46067784 4.61018-1.93081.66586-.20234 1.34073-.36645 2.02325-.5117 8.50198856-1.88788729 17.3608132.96188601 23.1674815 7.4526896 5.8066683 6.49080357 7.65622583 15.61106227 4.8369385 23.8511804 9.43927-9.67911 7.67846-25.38108 4.42236-38.504-3.26239-13.12256-7.21179-27.72486-.57639-39.51162 3.68851-6.56063 10.175-10.63106 17.45435-12.27081.22331-.04815.44631-.09623.67008-.13789 8.67315942-1.75677447 17.6898251-.17689923 25.249 4.42406 13.91882 8.77112 21.06772 25.40139 23.38793 41.69208 3.73834 26.21472-4.53461 55.47118-26.02355 70.95329z"/>
    <path fill="rgb(255,255,255)" fill-rule="evenodd" d="M749.91668 517.38193c-.5486935 5.78241222-1.93771225 11.45390163-4.12321 16.83544-2.0141277 4.76223583-4.72892891 9.19658394-8.05438 13.156-6.91354755 8.09191905-15.66925153 14.40524315-25.53063 18.40893-7.4590116 3.05489858-15.27422348 5.15480848-23.25985 6.24981-3.306-.23326-6.58868-.507-9.84091-.80228-.01965-.0051-.04544-.00328-.06541-.00836-.15629-.01487-.3129-.02976-.46245-.03863-.67126-.0628-1.34284-.12554-2.0078-.18875l.15708.29974.493.93009c-.17718-.31128-.35423-.6161-.53141-.92739-.05212-.09343-.11053-.18646-.16233-.28 12.14811248-12.10357434 17.67242512-29.34664622 14.81951-46.25623-1.47124802-8.27459855-4.87727061-16.08434707-9.94035-22.79246.66586-.20234 1.34073-.36645 2.02325-.5117 1.92420228 2.63059037 3.61204741 5.42616188 5.04382 8.35406 5.13748312 10.44166736 6.77650115 22.2600026 4.67445 33.70568-1.95421692 10.35740574-6.82289687 19.94228104-14.03439 27.62923.63145-.0445 1.269-.09592 1.893-.15286 11.81832-1.00128 23.61258-3.542 34.33191-8.74615 9.16265692-4.3404786 17.11741098-10.86747161 23.16363-19.0061 6.492-8.95336 9.35272-19.723 9.84414-30.6688.37818647-11.79248707-.85785182-23.58130945-3.67377-35.0389-2.73076275-11.68300711-6.88090177-22.98795479-12.35789-33.6628-.25436887-.50284273-.06970267-1.1168177.41985-1.39591.19647435-.13243978.43727656-.1819924.67008-.13789.23077845.0610678.4210878.22408647.51687.44275.67566 1.3187 1.33875 2.63828 1.97662 3.97261 5.31247434 11.11426167 9.2236482 22.84544534 11.64367 34.92405 2.34933 11.65213 3.60329 23.84128 2.3739 35.70682z"/>
    <g id="chat1">
      <path fill="rgb(204,204,204)" fill-rule="evenodd" d="M33.51527023 181.81544495c.5241623.20465088 1.08183289.30996704 1.64453125.31056213 1.25919342-.00128174 2.4596138-.53285217 3.30685807-1.46438599l49.6218338-54.13330078c1.13853454-1.23917389 2.74371338-1.94530487 4.42650604-1.94727325h262.21961975c8.28555298-.0092926 15-6.723732 15.00927734-15.00926972V15.0092802C369.73461914 6.72373772 363.02017212.00929705 354.73461914 0H15.00928974C6.72374154.00928604.00929156 6.72373152 0 15.0092802v94.56249714c.00928605 8.28555298 6.72373772 15.00000763 15.00928974 15.0092926h9.63134098c3.31476784.00386048 6.00091934 2.69011689 6.00463867 6.00488282v47.03320312c-.00792503 1.85914612 1.13451386 3.52954102 2.87000084 4.19628907zM2 15.0092802C2.0081122 7.8278122 7.82782173 2.00810647 15.00928879 2h339.72533035c7.18148804.00811195 13.00119019 5.82781601 13.00927734 13.0092802v94.56249714c-.00811767 7.18146515-5.82781982 13.00115967-13.00927734 13.00926972H92.51500702c-2.24324036.00254822-4.38303375.9438324-5.9007492 2.59571075L36.99243163 179.3100586c-.69734573.7606659-1.79010391 1.01528931-2.75185013.64120484-.96175003-.37409973-1.59524917-1.30018616-1.59532165-2.3321228V130.5859375c-.00485993-4.41886139-3.58577347-7.99988556-8.00464058-8.00489044h-9.63134003C7.82781982 122.572937 2.00811768 116.75324249 2 109.57177734V15.0092802z"/>
      <ellipse cx="36.816" cy="29.456" fill="rgb(204,204,204)" rx="13.134" ry="13.134"/>
      <path fill="rgb(204,204,204)" fill-rule="evenodd" d="M339.41193 102.12955H30.332c-2.50451213.00299247-4.82005813-1.33143049-6.07317884-3.49990425-1.25312071-2.16847375-1.25312071-4.84100775 0-7.0094815C25.51194186 89.45169049 27.82748787 88.11726753 30.332 88.12026h309.07993c2.50451213-.00299247 4.82005813 1.33143049 6.07317884 3.49990425 1.25312071 2.16847375 1.25312071 4.84100775 0 7.0094815-1.2531207 2.16847376-3.56866671 3.50289672-6.07317884 3.49990425z"/>
      <path fill="rgb(204,204,204)" fill-rule="evenodd" d="M238.72017 72.35981H30.332c-2.50451213.00299247-4.82005813-1.33143049-6.07317884-3.49990425-1.25312071-2.16847375-1.25312071-4.84100775 0-7.0094815C25.51194186 59.68195049 27.82748787 58.34752753 30.332 58.35052h208.38817c2.50451213-.00299247 4.82005813 1.33143049 6.07317884 3.49990425 1.25312071 2.16847375 1.25312071 4.84100775 0 7.0094815-1.2531207 2.16847376-3.56866671 3.50289672-6.07317884 3.49990425z"/>
    </g>
    <g id="chat3">
      <path fill="rgb(204,204,204)" fill-rule="evenodd" d="M33.51527023 515.4116211c.52415848.20465087 1.08183289.30993652 1.64453125.31054687 1.2591858-.0012207 2.45960617-.53283692 3.30685807-1.46435547l49.6218338-54.13327026c1.13853454-1.23916626 2.74371338-1.9453125 4.42650604-1.94726563h262.21961975c8.28555298-.00930786 15-6.72372436 15.00927734-15.00927734v-94.5625c-.00927734-8.28555298-6.72372436-14.99996948-15.00927734-15.00927735H15.0092802C6.72373533 333.60549927.00929155 340.3199463 0 348.60549927v94.5625c.00930809 8.28555298 6.72375298 14.99996948 15.00928974 15.00924682h9.63134098c3.31476784.00384522 6.00091934 2.69012452 6.00463867 6.00488282v47.03320312c-.0077877 1.85913086 1.1346035 3.52941895 2.87000084 4.19628906zM2 348.60546874c.00810099-7.18148804 5.8278141-13.00119019 13.00928879-13.00930786l339.72533035.00006103c7.18148804.00808716 13.00119019 5.82781983 13.00927734 13.00927735v94.5625c-.00808715 7.18145752-5.8277893 13.00115967-13.00927734 13.00927734H92.51500702c-2.24324036.00253296-4.38303375.94381714-5.9007492 2.59570313L36.99243163 512.90625c-.69734573.76068115-1.79010391 1.01531982-2.75185013.64123535-.96175003-.3741455-1.59524917-1.3001709-1.59532165-2.33215332v-47.03320312c-.00485993-4.41885376-3.58577538-7.99987793-8.00464058-8.0048523h-9.63134003C7.82781601 456.16915894 2.00811195 450.3494568 2 443.16799927v-94.56253052z"/>
      <ellipse cx="36.816" cy="363.053" fill="rgb(204,204,204)" rx="13.134" ry="13.134"/>
      <path fill="rgb(204,204,204)" fill-rule="evenodd" d="M339.41193 435.72573H30.332c-2.50451213.00299247-4.82005813-1.33143049-6.07317884-3.49990425-1.25312071-2.16847375-1.25312071-4.84100775 0-7.0094815 1.2531207-2.16847376 3.56866671-3.50289672 6.07317884-3.49990425h309.07993c3.86855861 0 7.004645 3.13608639 7.004645 7.004645s-3.13608639 7.004645-7.004645 7.004645z"/>
      <path fill="rgb(204,204,204)" fill-rule="evenodd" d="M238.72017 405.956H30.332c-2.50451213.00299247-4.82005813-1.33143049-6.07317884-3.49990425-1.25312071-2.16847375-1.25312071-4.84100775 0-7.0094815 1.2531207-2.16847376 3.56866671-3.50289672 6.07317884-3.49990425h208.38817c2.50451213-.00299247 4.82005813 1.33143049 6.07317884 3.49990425 1.25312071 2.16847375 1.25312071 4.84100775 0 7.0094815-1.2531207 2.16847376-3.56866671 3.50289672-6.07317884 3.49990425z"/>
    </g>
    <g id="chat2">
      <path fill="rgb(63,61,86)" fill-rule="evenodd" d="M533.53638695 340.8930664c.84710694.93154908 2.04748535 1.46313477 3.30664063 1.46435547.56274414-.00054931 1.1204834-.10601806 1.64453125-.31103515 1.73553467-.66644287 2.87805176-2.33673096 2.87011719-4.19580078V290.8173828c.0036621-3.31478882 2.68981933-6.00106811 6.00463867-6.00488281h9.63134765c8.28552246-.00927734 15-6.72375488 15.00927735-15.00927734v-94.5625c-.00927735-8.28555298-6.72375489-14.99998474-15.00927735-15.00927735H217.26844262c-8.28553772.0092926-14.99998474 6.72373963-15.00927735 15.00927735v94.5625c.0092926 8.28552246 6.72372437 14.99996948 15.00927735 15.00927734h262.21957397c1.68270874.00198364 3.28781128.70812988 4.42626953 1.94726563l49.62210083 54.13330078zm-329.2772522-165.65237426c.00811768-7.18145752 5.82781983-13.00115967 13.00927735-13.00927735l339.72525024.00003052c7.18145752.00811768 13.00115967 5.82780457 13.00927735 13.00927735v94.5625c-.00811768 7.18145752-5.82781983 13.00115966-13.00927735 13.00927734h-9.63134765c-4.41888428.00500488-7.99975586 3.58599854-8.00463867 8.00488281v47.03317261c-.00012207 1.0319519-.63360596 1.9579773-1.59533692 2.33206177-.96173096.37408447-2.05444336.11950683-2.75183105-.64117432l-49.62207032-54.13327026c-1.5175476-1.6519165-3.65725708-2.59320069-5.90039062-2.59570313H217.2684121c-7.18147278-.00811767-13.00115967-5.82781982-13.00927734-13.00927734v-94.5625z"/>
      <ellipse cx="239.075" cy="188.812" fill="rgb(63,61,86)" rx="13.134" ry="13.134"/>
      <path fill="rgb(108,99,255)" fill-rule="evenodd" d="M541.671 261.4852H232.59111c-2.5025169 1e-7-4.81493793-1.33507672-6.06619641-3.50231992-1.25125848-2.1672432-1.25125848-4.83739696 0-7.00464016 1.25125848-2.1672432 3.56367951-3.50232002 6.06619642-3.50231992H541.671c2.5025169-1e-7 4.81493793 1.33507672 6.06619641 3.50231992 1.25125848 2.1672432 1.25125848 4.83739696 0 7.00464016-1.25125848 2.1672432-3.56367951 3.50232002-6.06619642 3.50231992h1e-8z"/>
      <path fill="rgb(108,99,255)" fill-rule="evenodd" d="M440.97927 231.71547H232.59111c-2.50451213.00299247-4.82005813-1.33143049-6.07317884-3.49990425-1.25312071-2.16847375-1.25312071-4.84100775 0-7.0094815 1.2531207-2.16847376 3.56866671-3.50289672 6.07317884-3.49990425h208.38816c2.50451213-.00299247 4.82005813 1.33143049 6.07317884 3.49990425 1.25312071 2.16847375 1.25312071 4.84100775 0 7.0094815-1.2531207 2.16847376-3.56866671 3.50289672-6.07317884 3.49990425z"/>
    </g>
    <path fill="rgb(255,184,184)" fill-rule="evenodd" d="M541.53637 360.35872c.60756896-2.91328458 2.4743469-5.40781858 5.09801318-6.81236206 2.62366628-1.40454347 5.73470585-1.57481528 8.49598682-.46499794l23.4593-26.95627 4.98283 17.88869-23.04128 22.8556c-2.22058634 4.61656272-7.5431541 6.84263645-12.3892436 5.18159109-4.84608949-1.66104536-7.6839201-6.68417677-6.6055664-11.69225109h-.00004z"/>
    <ellipse cx="670.29" cy="209.301" fill="rgb(255,184,184)" rx="24.561" ry="24.561"/>
    <path fill="rgb(255,184,184)" fill-rule="evenodd" d="M641.43601 547.373l-12.259-.001-5.833-47.288 18.095.001-.003 47.288z"/>
    <path fill="rgb(47,46,65)" fill-rule="evenodd" d="M644.563 559.25707l-39.53052-.00146v-.5c-.00004774-4.08073986 1.62101582-7.9943533 4.5065581-10.87984868 2.88554227-2.8854954 6.79918204-4.50649537 10.8799219-4.50638132h.001l24.1438.001-.00076 15.88669z"/>
    <path fill="rgb(255,184,184)" fill-rule="evenodd" d="M678.43601 560.373l-12.259-.001-1.698-46.158 13.96-1.129-.003 47.288z"/>
    <path fill="rgb(47,46,65)" fill-rule="evenodd" d="M681.563 572.25707l-39.53052-.00146v-.5c-.00004774-4.08073986 1.62101582-7.9943533 4.5065581-10.87984868 2.88554227-2.8854954 6.79918204-4.50649537 10.8799219-4.50638132h.001l24.1438.001-.00076 15.88669z"/>
    <path fill="rgb(47,46,65)" fill-rule="evenodd" d="M674.9494 551.74336l-9.54688-1.124c-2.23912883-.2687521-3.93600287-2.14941842-3.97388-4.4043l-1.78906-124.33887c-.01064272-.7261458-.53999422-1.3403477-1.25661754-1.4580423-.71662332-.11769458-1.41461634.29493446-1.65695246.9795323l-13.24561 37.39939.94727 70.10156c.03338911 2.40373764-1.82909673 4.40891499-4.22876 4.55274l-12.46387.52929c-2.36468316.13431682-4.43317106-1.57684126-4.74439-3.9248l-6.50976-79.30078-.00415-.04981 9.8772-82.81933 74.1831 5.36718L679.94427 547.802c-.2700148 2.26309513-2.18716784 3.96835007-4.46631 3.97266-.17665522.00018582-.35316134-.01026643-.52856-.0313z"/>
    <path fill="rgb(108,99,255)" fill-rule="evenodd" d="M626.67059 375.22773c-1.35345505-.72243346-2.242244-2.08809617-2.35474-3.61816-.112496-1.53006383 6.6709-41.48438 9.11548-42.2627l-5.34863-44.36328c-1.2942401-10.93078894 1.87096989-21.92194781 8.78051-30.49023 6.65594176-8.31500147 16.4220647-13.54725188 27.03179-14.48242 0 0 1.12134-.10109 2.23047-.1543 12.84540702-.6879224 25.21669285 4.94326407 33.134 15.082 8.21254389 10.22587409 10.90836377 23.82028209 7.21949 36.40625l-2.99976 10.43945v72.95606c-.0064568 1.44404165-.6972272 2.79949239-1.86182 3.65332-9.34106 6.85547-19.897 9.2793-30.15551 9.2793-19.41087.00003-37.7571-8.67966-44.79128-12.44529z"/>
    <path fill="rgb(108,99,255)" fill-rule="evenodd" d="M569.08132 361.87712L556.1789 352.229c-1.02373285-.76528356-1.67367943-1.92984678-1.78756098-3.20292135-.11388155-1.27307458.31905028-2.53450555 1.19070098-3.46933865l76.863-82.47429c5.0987922-5.42349327 13.39611279-6.30564299 19.52126-2.07545l.00021.00012c3.65635152 2.54911944 5.9874201 6.59426043 6.35960547 11.03592615.37218537 4.44166572-1.2531854 8.81833297-4.43432547 11.94039385L574.928 361.48515c-1.42581043 1.41304189-3.61852451 1.70277888-5.36242.70857-.16787416-.09531536-.32961103-.20105586-.48426-.3166z"/>
    <path fill="rgb(255,184,184)" fill-rule="evenodd" d="M667.8299 350.95717c1.14165704-2.74826854 3.44199387-4.84969568 6.28203086-5.73882483 2.84003699-.88912916 5.92803512-.47462572 8.43306914 1.13197483l28.08641-22.09373 1.54966 18.50493-26.90897 18.14357c-3.04473197 4.11985955-8.68968819 5.31131724-13.1396635 2.77333474-4.44997532-2.5379825-6.29839633-8.00318532-4.3025365-12.72125474z"/>
    <path fill="rgb(108,99,255)" fill-rule="evenodd" d="M692.96893 359.58223c-1.51270109-.47001132-2.66308106-1.7063939-3.023-3.249l-2.83716-11.916c-.42528199-1.7293233.22453905-3.5453644 1.65039-4.61231l19.08887-20.64453-28.07862-43.2959c-4.37019892-5.38177481-4.55997346-13.03421901-.46191-18.626 3.23382827-4.41003526 8.5823994-6.74963825 14.01593008-6.13092939 5.43353067.61870886 10.11918243 4.10089538 12.27874992 9.12506939l26.104 50.81054c5.37241685 10.45058218 2.05073566 23.26877394-7.721 29.79493l-26.67665 17.8203c-.81687767.73097203-1.87428118 1.13561364-2.97046 1.13672-.46457288-.00064066-.92630687-.0724365-1.36914-.21289z"/>
    <path fill="rgb(47,46,65)" fill-rule="evenodd" d="M688.48952 231.25775c-1.17306871.70401093-2.60693365.82208648-3.87936648.31945711-1.27243283-.50262937-2.23853272-1.56872574-2.61381352-2.88435711l-.01539-.06128c-.50024-2.04355-.10536-4.18241.02383-6.28233s-.08861-4.40488-1.52657-5.94066c-2.68052-2.86288-7.4138-1.31231-11.27146-2.01917-4.67551791-1.0174021-7.86716209-5.35005346-7.45268-10.117.05255-.43662.13628-.87389.23045-1.31095.47664847-2.2448792-.12639316-4.5833902-1.6292023-6.31781837-1.50280913-1.73442818-3.7316458-2.66425607-6.0215177-2.51206163-3.89343.24353-8.091 1.446-11.32878-1.42141-2.4275011-2.31318944-3.23599488-5.8540204-2.05309-8.99159 1.81153-5.32069 6.99681-8.12883 12.13466-9.68478 12.86914852-3.79306307 26.7621749-1.58967511 37.8262 5.99911 3.26265 2.2737 6.31357 5.13619 7.71889 8.85636 1.40532 3.72017.76213 8.42656-2.34866 10.904 4.95605447 5.19137411 6.7718826 12.62948087 4.76546 19.52057-1.51637 4.98004-8.85484 9.78616-12.55896 11.94391z"/>
    <path fill="rgb(63,61,86)" fill-rule="evenodd" d="M842.73 572c-.0015163.55165546-.44834454.9984837-1 1h-381c-.55228475 0-1-.44771525-1-1s.44771525-1 1-1h381c.55165546.0015163.9984837.44834454 1 1z"/>
  </g>
</svg>
