<svg xmlns="http://www.w3.org/2000/svg" width="942.576" height="696.952" viewBox="0 0 942.576 696.952">
            <g>
              <path fill="rgb(240,240,240)" fill-rule="evenodd" d="M139.97128993 199.95043523c-33.56665 17.70441-60.01468 52.66209-58.77037 90.59077 31.24368242-26.96210296 71.0172381-42.00387727 112.28358-42.464 15.91535-.11976 33.62952 1.40419 45.8652-8.77438 7.61347-6.3332 11.51715-16.2578 12.58113-26.10339 1.06378-9.8461-.40792-19.76994-1.87617-29.56392l.79968-2.33931c-37.89156-2.09635-77.31639.94982-110.88305 18.65423z"/>
              <path fill="rgb(255,255,255)" fill-rule="evenodd" d="M81.99303993 290.62261523c14.51956132-27.85425517 37.44655994-50.42542686 65.5245-64.50756 5.9907164-3.13886759 12.43876066-5.313821 19.10675-6.44479 6.53107638-.8918146 13.18181886-.01843591 19.2612 2.52939 5.71616 2.26173 11.30125 5.23718 17.46766 6.07 6.39702818.76745964 12.81751782-1.23171975 17.64805-5.49516 6.08751-5.09742 9.9804-12.07819 13.55008-19.0371 3.96345-7.72653 7.95781-15.81478 15.06831-21.15153.86153-.64662-.19218-1.94562-1.05242-1.3-12.371 9.285-15.16146 25.759-25.24331 36.92567-4.70438 5.21057-11.00753 9.035-18.23643 8.55289-6.32136-.42157-12.08338-3.485-17.85132-5.825-5.89417628-2.57242865-12.32858478-3.66247554-18.74115-3.17492-6.7040646.78782675-13.22517818 2.71075836-19.28409 5.68645-13.74740074 6.48164896-26.39018842 15.08452867-37.46522 25.49349-12.70572835 11.80956653-23.29764966 25.70559233-31.3175 41.08686-.496.95221 1.07211 1.53731 1.56485.59132l.00004-.00001z"/>
              <path fill="rgb(255,255,255)" fill-rule="evenodd" d="M138.20964993 230.11727523c-6.20062552-9.06717049-18.05704596-12.30719902-28.00718-7.65358-.97323.45926-.30529 1.99318.66924 1.53332 9.26098522-4.3521922 20.31206332-1.3079593 26.038 7.17267.6033.89127 1.89983-.16624 1.3-1.05241h-.00006z"/>
              <path fill="rgb(255,255,255)" fill-rule="evenodd" d="M183.13820993 220.67115523c-1.91052863 10.70286747-7.78490005 20.29241882-16.45176 26.85649-.85921.64965.19423 1.94885 1.05241 1.3 9.0061911-6.84756382 15.0990926-16.83939608 17.06274-27.98142.18643-1.06212-1.478-1.23141-1.66339-.175v-.00007z"/>
              <path fill="rgb(255,255,255)" fill-rule="evenodd" d="M101.07093993 261.64478523c3.07863946 2.95881126 4.46313425 7.2673793 3.68434 11.46572-.1998 1.05924 1.46489 1.2274 1.66339.17506.83848306-4.64046553-.6776368-9.39480992-4.04775-12.69319-.29806144-.34500205-.81283902-.39917627-1.17619-.12378-.356779.29180388-.4120018.81650303-.12379 1.17619z"/>
              <path fill="rgb(240,240,240)" fill-rule="evenodd" d="M182.84748993 369.13821523c.14357-.65786.28714-1.31571.44368-1.97921 1.97601003-8.83443203 4.66646946-17.49373075 8.04483-25.89245.25088-.6535.515-1.312.78411-1.95691 8.35492928-20.14764 20.37781548-38.56902117 35.45748-54.3277 6.00631275-6.26522977 12.48057906-12.06442133 19.36675-17.34737 9.51049-7.29545 20.40274-14.44886 26.76059-24.17378.67470018-1.00716193 1.286368-2.05514848 1.83149-3.13794l-21.89025-57.86967c-.11575-.10655-.21861-.21871-.3346-.32591l-.76836-2.35052c-.37418.24766-.75694.51257-1.13112.76023-.21765.14275-.43043.29841-.64808.44117-.14355.09925-.28695.19918-.42216.28054-.04791.03286-.09557.06637-.13034.09426-.13522.08136-.25218.1713-.37418.24766 0 0-3.21543 2.21226-6.41094 4.47741-.01322.005-.01322.005-.02156.02289-16.20281 11.54768-31.58392 24.54949-44.50263 39.47252-.38853.44911-.79052.90257-1.169 1.37811-5.78581588 6.75892419-11.00953843 13.9794238-15.619 21.58939-2.51059861 4.17508454-4.80823224 8.47458665-6.88408 12.882-5.34176007 11.39843548-8.85738849 23.56615435-10.418 36.05708-3.10741 24.901 1.78355 50.5186 16.86822 70.1682.38615.50243.76768.9926 1.16715 1.49z"/>
              <path fill="rgb(255,255,255)" fill-rule="evenodd" d="M183.53275993 368.73028523c-5.17713333-30.98184124-.46061562-62.80729554 13.47963-90.95595 2.89343852-6.1130363 6.73237541-11.7317811 11.37548-16.64938 4.67776032-4.64422601 10.5138383-7.95108998 16.90185-9.577 5.92575-1.63566 12.17656-2.62254 17.60151-5.67018 5.569736-3.23867545 9.49249632-8.7004865 10.78252-15.01292 1.79154-7.73511.69688-15.65265-.64267-23.35814-1.48732-8.55548-3.16772-17.41838-.70348-25.96048.29858-1.035-1.32484-1.43776-1.623-.40433-4.28736 14.86178 3.40312 29.69536 2.07643 44.68129-.61906 6.99271-3.34921 13.84123-9.41134 17.8086-5.30107 3.46929-11.74608 4.49248-17.76034 6.09677-6.25495087 1.49476212-12.04874971 4.4983824-16.87528 8.74848-4.87848843 4.66532811-8.92748844 10.12682723-11.97361 16.15062-7.0741209 13.45211714-11.9891384 27.93286553-14.565 42.91177-3.03463976 17.07900518-3.12532765 34.55127393-.26814 51.66086.17727 1.0589 1.78158.582 1.60546-.47l-.00002-.00001z"/>
              <path fill="rgb(255,255,255)" fill-rule="evenodd" d="M191.99017993 286.57387523c-10.4099151-3.50642403-21.82732451 1.04497794-26.97015 10.7513-.50057.95264.95628 1.77525 1.45751.82134 4.77406544-9.0507099 15.43055104-13.27355713 25.1083-9.94967 1.0183.3484 1.41681-1.27657.40434-1.623v.00003z"/>
              <path fill="rgb(255,255,255)" fill-rule="evenodd" d="M222.17586993 251.98157523c4.9184131 9.69591124 6.00163111 20.88940684 3.03366 31.3485-.29491 1.036 1.32842 1.43911 1.623.40434 3.06823612-10.88974292 1.91730537-22.53600804-3.2231-32.61454-.49062-.96029-1.92148-.09337-1.43352.8617h-.00004z"/>
              <path fill="rgb(255,255,255)" fill-rule="evenodd" d="M181.31873993 334.10689523c4.23952932.5088916 7.93902525 3.11548146 9.84489 6.93651.4782.966 1.90861.098 1.43352-.8617-2.12440446-4.20996792-6.19738505-7.09322667-10.87408-7.69775-.44570116-.09600282-.88933524.17067218-1.01365.60932-.10917415.44779672.16264232.89998403.60932 1.01365v-.00003z"/>
              <path fill="rgb(63,61,86)" fill-rule="evenodd" d="M512.26286993 140.37917523h-3.24576v-88.91658c.00001326-13.64870095-5.42189936-26.73839192-15.07297899-36.3894903C484.29305132 5.42200655 471.2033709.0000685 457.55466994.00005523H269.17280992c-28.42194451-.00005523-51.46252925 23.04043549-51.46259 51.46238v487.80339c-.0000221 28.42194612 23.04049387 51.46250686 51.46244 51.46254h188.38179c28.42194613.00007732 51.46255163-23.04039387 51.46264-51.46234v-335.59452h3.24578v-63.29233z"/>
              <path fill="rgb(255,255,255)" fill-rule="evenodd" d="M459.63102993 13.38882523h-24.59006c2.29637423 5.63003032 1.6394995 12.03378458-1.75204446 17.08036813-3.39154396 5.04658356-9.07271215 8.07377386-15.15305554 8.07425187h-107.92157c-6.0803663-.00043918-11.76156982-3.02762403-15.15312792-8.07422568-3.3915581-5.04660165-4.04841789-11.45038622-1.75200208-17.08042432h-22.96718c-21.22518754-.00001105-38.43161686 17.20638246-38.43165 38.43157v487.08759c-.00001104 21.22519926 17.20640075 38.43163343 38.4316 38.43165h189.28909c21.22519925.00001104 38.43163343-17.20640075 38.43165-38.4316v-487.08761c-.0000053-10.19269833-4.04904677-19.96792758-11.25638038-27.17524618-7.2073336-7.2073186-16.98257129-11.25633973-27.17526961-11.25632382h-1e-8z"/>
              <path fill="rgb(63,61,86)" fill-rule="evenodd" d="M260.2697769 229.16110412c17.55285645 42.37643432 58.90426636 70.00656128 104.77215576 70.00656128 62.6022339-.0706482 113.33374024-50.8020935 113.40454102-113.40428925.00012207-45.86787414-27.62994385-87.2193756-70.00634766-104.7723236-42.37634277-17.552948-91.15371704-7.85059357-123.58724975 24.58285522-32.43351746 32.43347168-42.13597107 81.21080017-24.58309937 123.58719635zm-6.63241577-43.3980484c.00004578-61.52700806 49.87756348-111.40447235 111.40457153-111.40446472 61.49829102.06954956 111.33511353 49.90649414 111.40454102 111.40478515-.00012207 61.52700043-49.87771606 111.40441132-111.40472412 111.40431976-61.52700806-.00009155-111.4044342-49.8776245-111.40438843-111.4046402z"/>
              <path fill="rgb(228,228,228)" fill-rule="evenodd" d="M351.97129993 195.56040523c-3.91359-11.60023-17.88326-18.69859-29.55989-15.02029-10.09768 3.18081-16.96581 13.9475-16.41754 24.39919-3.37687-12.76567-16.369-22.7491-29.69392-21.8136-14.97494 1.05134-27.61812 15.697-26.47247 30.66467-1.08671881-8.08885048-7.64683494-14.33697257-15.77900307-15.02856593-8.13216813-.69159336-15.65317493 4.35901156-18.09022693 12.14818593l.00463-.27724c-2.38259-1.33891-5.60925 1.00735-5.752 3.73694-.1427 2.72952 2.00013 5.16107 4.5127 6.23754 2.512 1.07646 5.33367 1.09 8.06694 1.08657 0 0 51.16261-.06585 102.32638-.13179 7.92308-.01019 16.65672-.32108 22.48146-5.69295 5.3834-4.96506 6.71392-13.36954 4.37294-20.30866z"/>
              <path fill="rgb(228,228,228)" fill-rule="evenodd" d="M433.51268993 248.52126523c-2.33893931-6.19430415-9.01292145-9.58555368-15.39512-7.82272-5.259 1.65659-8.836 7.264-8.55043 12.70736-1.75871-6.6485-8.52516-11.848-15.46492-11.36076-7.79911.54755-14.38382 8.17515-13.78716 15.97049-.56598542-4.21275275-3.982563-7.4668312-8.2178776-7.82701924-4.2353146-.36018804-8.15233171 2.27021228-9.4215824 6.32688924l.00241-.14439c-1.24088-.69731-2.92136.52464-2.99568 1.94624.0523991 1.4591888.98070726 2.74231634 2.35026 3.24858 1.347835.47054122 2.77705007.66304906 4.20135.5659 0 0 26.64606-.03431 53.29271-.06864 4.12643-.0053 8.675-.16722 11.70859-2.96495 2.80371-2.58586 3.49663-6.963 2.27745-10.57698z"/>
              <ellipse cx="387.523" cy="120.687" fill="rgb(255,101,130)" rx="39.046" ry="39.046"/>
              <path fill="rgb(228,228,228)" fill-rule="evenodd" d="M495.13902993 134.03377523c-3.91359-11.60023-17.88326-18.69859-29.55989-15.02028-10.09768 3.1808-16.96581 13.9475-16.41754 24.39918-3.37687-12.76566-16.369-22.7491-29.69392-21.8136-14.97493 1.05134-27.61812 15.697-26.47247 30.66467-1.08672815-8.08884054-7.6468401-14.3369507-15.77899963-15.02854353-8.13215953-.69159283-15.65316046 4.35900065-18.09022037 12.14816353l.00462-.27724c-2.38259-1.3389-5.60925 1.00736-5.752 3.737-.1427 2.72951 2.00013 5.16106 4.5127 6.23753 2.512 1.07647 5.33367 1.09 8.06694 1.08658 0 0 51.16261-.06587 102.32638-.1318 7.92308-.01018 16.65672-.32108 22.48146-5.69294 5.3834-4.96512 6.71393-13.3696 4.37294-20.30872z"/>
              <path fill="rgb(63,61,86)" fill-rule="evenodd" d="M418.87576993 195.32186523l7.52091-6.01527c-5.84266-.6446-8.24329 2.54185-9.22578 5.064-4.56451-1.89536-9.53353.58861-9.53353.58861l15.04792 5.46293c-.75913427-2.02768737-2.08062155-3.7969239-3.80952-5.10027z"/>
              <path fill="rgb(63,61,86)" fill-rule="evenodd" d="M321.85300993 254.48208523l7.52091-6.01527c-5.84266-.6446-8.24329 2.54185-9.22578 5.064-4.56451-1.89536-9.53353.58861-9.53353.58861l15.04792 5.46293c-.75913427-2.02768737-2.08062155-3.7969239-3.80952-5.10027z"/>
              <path fill="rgb(63,61,86)" fill-rule="evenodd" d="M305.28814993 152.72651523l7.52091-6.01528c-5.84266-.6446-8.24329 2.54185-9.22578 5.064-4.56451-1.89536-9.53354.58861-9.53354.58861l15.04792 5.46293c-.7591273-2.0276857-2.080612-3.79691996-3.80951-5.10026z"/>
              <ellipse cx="359.126" cy="495.763" fill="rgb(240,240,240)" rx="66.259" ry="7.099"/>
              <g id="notification">
                <path fill="rgb(108,99,255)" fill-rule="evenodd" d="M33.76431993 381.45336523h310.80081c16.4535426.00072643 30.5137668 11.85464232 33.29600227 28.07124585 2.78223548 16.21660354-6.52274404 32.07921943-22.03511227 37.56424415v23.32561l-21.3957-21.39571h-300.666C15.11383013 449.0086081 0 433.88655279 0 415.23606023c0-18.65049256 15.11383013-33.77254787 33.76431993-33.782695z"/>
                <path fill="rgb(255,255,255)" fill-rule="evenodd" d="M48.40348993 407.35343523h273.63984c1.24384467 0 2.25218-1.00833533 2.25218-2.25218s-1.00833533-2.25218-2.25218-2.25218h-273.63984c-1.24384467 0-2.25218 1.00833533-2.25218 2.25218s1.00833533 2.25218 2.25218 2.25218z"/>
                <path fill="rgb(255,255,255)" fill-rule="evenodd" d="M48.40348993 424.24477523h273.63984c1.24384467 0 2.25218-1.00833533 2.25218-2.25218s-1.00833533-2.25218-2.25218-2.25218h-273.63984c-1.24384467 0-2.25218 1.00833533-2.25218 2.25218s1.00833533 2.25218 2.25218 2.25218z"/>
              </g>
              <path fill="rgb(255,182,182)" fill-rule="evenodd" d="M723.67327993 497.37020523c3.02544297-1.71980952 5.13373231-4.69136407 5.75757519-8.11508573.62384287-3.42372166-.30084284-6.9479204-2.52524519-9.62431427l13.67208-106.22785-25.55039 1.07282-5.405 104.08113c-4.34394433 4.12544306-4.91571536 10.84793225-1.33089494 15.64774426 3.58482042 4.79981202 10.19309703 6.15976173 15.38189494 3.16551574l-.00002.00004z"/>
              <path fill="rgb(255,182,182)" fill-rule="evenodd" d="M842.57962993 373.38805523l3.283 54.314-22.167 58.544-10.592-15.659 10.095-56.952-2.8-36.436 22.181-3.811z"/>
              <path fill="rgb(255,182,182)" fill-rule="evenodd" d="M810.84062993 540.85305523l2.72 139.62-11.934 1.848-25.797-142.902 35.011 1.434z"/>
              <path fill="rgb(255,182,182)" fill-rule="evenodd" d="M733.43862993 547.59905523l18.68 138.392h12.076l3.623-145.167-34.379 6.775z"/>
              <ellipse cx="768.588" cy="277.552" fill="rgb(255,182,182)" rx="24.836" ry="24.836"/>
              <path fill="rgb(47,46,65)" fill-rule="evenodd" d="M789.48337993 288.07556523c.84539 1.85983 2.17381.6968 3.72138-.57225 2.8873-2.36767 4.56914-6.0679 5.53511-9.59428 1.66825712-5.86334995 1.81994262-12.05435663.44083-17.99237-1.40743071-5.95004183-4.68614195-11.29180374-9.35438-15.2404-1.06692717-.8937722-2.22819666-1.66845372-3.46319-2.31029-4.16255-2.11387-9.07891-2.20538-13.69678-1.51941-6.06085438.9325251-11.88570861 3.02236344-17.157 6.15558-2.3934199 1.26456057-4.47944349 3.04002226-6.11026 5.20058-1.6308632 2.2107865-2.0465094 5.09128317-1.10718 7.67294.07787801.22171219.21411623.4183138.39436.56909.33291226.17473691.71942521.21767367 1.08257.12026 3.75093285-.51440663 7.55533476-.50234341 11.30293.03584 1.05004374.0083392 2.03591461.50670846 2.66524 1.34731.21139023.73492901.3768268 1.48230424.49535 2.23779.8479 2.27049 4.59855 1.71335 6.0099 3.6837.88684 1.2381.49484 2.997 1.11406 4.38843.99308 2.23152 4.0189 2.586 6.4311 2.20231 2.4122-.38369 5.01929-1.14388 7.1849-.01427 2.086 1.08809 2.99493 3.56128 3.52019 5.85463.50999 2.22669.09436 5.80257.99087 7.77481z"/>
              <path fill="rgb(47,46,65)" fill-rule="evenodd" d="M813.87562993 462.97505523l10.422 24.368-10.422 32.787v33.937l-39.912.24-.882-41.734-5.37 41.734h-40.639l-7.522-83.65 10.791-19.796 83.534 12.114z"/>
              <path fill="rgb(108,99,255)" fill-rule="evenodd" d="M760.61024993 310.51756523l-2.93632 5.44085s-25.32665 4.93438-38.12342 18.873l17.17527 35.06969-15.90491 101.56585 93.78105-6.25207 3.32757-78.19824 14.11177-54.69357s-24.46475-16.77912-35.01919-15.01475l-3.69394-6.79076h-32.71788z"/>
              <path fill="rgb(108,99,255)" fill-rule="evenodd" d="M743.65607993 338.48376523l-24.10557-3.65235s-6.59918 38.706-6.5447 47.54351l29.09428 4.64169 1.55599-48.53285z"/>
              <path fill="rgb(108,99,255)" fill-rule="evenodd" d="M820.52172993 334.79270523l11.51956-2.46966s4.44291 14.10247 11.77593 47.31159l-29.94135 10.4491 6.64586-55.29103z"/>
              <path fill="rgb(47,46,65)" fill-rule="evenodd" d="M766.53686993 695.07354523l-43.3714-.00161v-.54858c.00065715-9.3230018 7.5583582-16.88058197 16.88136-16.88109h.00107l26.48977.00108-.0008 17.4302z"/>
              <path fill="rgb(47,46,65)" fill-rule="evenodd" d="M818.81033993 688.43737523l-42.8607 6.63617-.084-.54212c-1.42619156-9.21327367 4.88583262-17.83849004 14.09893-19.26582l.001-.00016 26.17787-4.05306 2.6669 17.22499z"/>
              <path fill="rgb(202,202,202)" fill-rule="evenodd" d="M941.57610993 696.95185523h-381c-.55228475 0-1-.44771525-1-1s.44771525-1 1-1h381c.55228475 0 1 .44771525 1 1s-.44771525 1-1 1z"/>
            </g>
          </svg>